<svg xmlns="http://www.w3.org/2000/svg" aria-hidden="true" style="position:absolute;width:0;height:0;overflow:hidden"><defs><symbol id="icon-caret" viewBox="0 0 32 32"><path fill="#fff" d="M16 3c-2.571 0-5.085.762-7.222 2.191S4.974 8.65 3.99 11.025a13 13 0 0 0 2.818 14.167 13.002 13.002 0 0 0 20.001-1.97A13 13 0 0 0 29 16 13.02 13.02 0 0 0 16 3m0 24a11 11 0 0 1-10.162-6.791A10.999 10.999 0 1 1 27 16a11.015 11.015 0 0 1-11 11m5.707-13.707a1 1 0 0 1 .293.708 1 1 0 0 1-.293.708l-5 5a1 1 0 0 1-.708.293 1 1 0 0 1-.708-.293l-5-5a1 1 0 1 1 1.414-1.414l4.293 4.294 4.293-4.294a1 1 0 0 1 .708-.293 1 1 0 0 1 .708.293z" style="fill:var(--color1, #fff)"/></symbol><symbol id="icon-close" viewBox="0 0 32 32"><path fill="#fff" d="m8.532 25.333-1.867-1.867 7.467-7.467-7.467-7.467 1.867-1.867 7.467 7.467 7.467-7.467 1.867 1.867-7.467 7.467 7.467 7.467-1.867 1.867-7.467-7.467z" style="fill:var(--color1, #fff)"/></symbol><symbol id="icon-email" viewBox="0 0 32 32"><path fill="#fff" d="m28.984 14.25-21-11.986a1.997 1.997 0 0 0-2.869 2.403L8.944 16 5.115 27.334a2 2 0 0 0 .253 1.821 2 2 0 0 0 2.623.582l20.99-12.006a2 2 0 0 0 1.022-1.741 1.99 1.99 0 0 0-1.017-1.745l-.004.005zM7 28v-.015L10.718 17H18a.997.997 0 0 0 1-1 .997.997 0 0 0-1-1h-7.282L7.008 4.02 7 4l21 11.979z" style="fill:var(--color1, #fff)"/></symbol><symbol id="icon-menu" viewBox="0 0 32 32"><path fill="#fff" d="M4 24v-2.667h24V24zm0-6.667v-2.667h24v2.667zm0-6.666V8h24v2.667z" style="fill:var(--color1, #fff)"/></symbol><symbol id="icon-playstore" viewBox="0 0 32 32"><path fill="#ea4335" d="M15.066 15.282 2.003 29.341l.002.009C2.406 30.877 3.78 32 5.412 32c.653 0 1.265-.179 1.79-.493l.042-.025 14.703-8.603z" style="fill:var(--color2, #ea4335)"/><path fill="#fbbc04" d="m28.28 12.888-.012-.009-6.348-3.731-7.151 6.453 7.177 7.276 6.314-3.694a3.59 3.59 0 0 0 1.859-3.154 3.58 3.58 0 0 0-1.838-3.142z" style="fill:var(--color3, #fbbc04)"/><path fill="#4285f4" d="M2.003 2.658a3.5 3.5 0 0 0-.12.921v24.843q.001.48.121.919l13.51-13.699z" style="fill:var(--color4, #4285f4)"/><path fill="#34a853" d="m15.163 16 6.76-6.854L7.237.512A3.5 3.5 0 0 0 5.414.001c-1.632 0-3.008 1.126-3.409 2.654l-.001.004 13.159 13.342z" style="fill:var(--color5, #34a853)"/></symbol></defs></svg>